<svg xmlns="http://www.w3.org/2000/svg" viewBox="0 0 150.12 114.84"><g id="f52ff37f-bdf5-4e9d-b60f-0ad64aef9b2e" data-name="Layer 2"><g id="b6e47030-65bc-4262-ab55-0974164a7d3c" data-name="Шар 1"><path d="M150.06,75.46a4.37,4.37,0,0,1-.17-.86,3.48,3.48,0,0,0-.44-1.51.07.07,0,0,0,0,0l0-.2a3.73,3.73,0,0,0-.12-.58c-.13-.43-.29-.85-.45-1.26l-.16-.43c-.18-.47-.37-1-.59-1.43a16.47,16.47,0,0,0-1-1.67c-.19-.29-.4-.57-.61-.85l-.27-.36a.89.89,0,0,0-.12-.14c0-.33,0-.65,0-1A17.12,17.12,0,0,0,146,63a6.89,6.89,0,0,0-.44-1.57c-.08-.21-.15-.41-.22-.62a.58.58,0,0,0-.2-.24,1.56,1.56,0,0,0-2.09,0l-.49.41a11.27,11.27,0,0,0-1.27,1.14,2.22,2.22,0,0,1-2.79.74,3.16,3.16,0,0,0-.59-.2,2.92,2.92,0,0,1-.71-.28A8.43,8.43,0,0,0,133.72,61c-.47-.07-.95-.12-1.43-.16L131,60.69c-.29,0-.58-.1-.87-.16a8.7,8.7,0,0,0-1.37-.22c-1.3-.05-2.61-.05-3.89-.05h-.76c-1.52,0-2.9,0-4.28,0h-.51c-1.14,0-2.32.06-3.47.2l-.88.14a9.37,9.37,0,0,1-2,.19c-1.09,0-2.17,0-3.26,0h-1a.83.83,0,0,1-.83-.5c-.29-.57-.6-1.12-.92-1.67l-.39-.69a1.23,1.23,0,0,0-1.27-.82c-.4,0-.55.58-.56.77s0,.53,0,.79,0,.38,0,.57v1.64c0,.8,0,1.6,0,2.4a2.14,2.14,0,0,0-.41,1.06,3.9,3.9,0,0,1-.14.59c-.1.25-.63,1.06-1,1.66s-.65,1-.77,1.22a.64.64,0,0,1-.08.14,1.82,1.82,0,0,0-.19.42c-.15.61-.3,1.21-.41,1.83a9.82,9.82,0,0,0-.16,1.49c0,.47,0,.93,0,1.4v1c0,.52,0,1,0,1.57s0,1.21,0,1.81c0,1.67,0,3.35,0,5,0,.24,0,.48,0,.72s0,.4,0,.6,0,.37,0,.56a7.83,7.83,0,0,0,0,1c0,.35.08.7.13,1s.09.56.12.83a7.76,7.76,0,0,0,1.68,4.57,25,25,0,0,0,2,2,1.52,1.52,0,0,1,.67,1.59,6.59,6.59,0,0,1-.56,1.34l-.17.34a5.82,5.82,0,0,1-.33.59,3.65,3.65,0,0,0-.59,1.3,7.37,7.37,0,0,0,0,2.73,17.22,17.22,0,0,0,1.24,3.49c.17.38.34.76.49,1.14.46,1.11.83,2.08,1.13,3s.7,1.42,1.82,1.42h0c1,0,1.91-.09,2.84-.17l1-.08a1.05,1.05,0,0,0,.5-.21s0,0,0,0a.21.21,0,0,0,0,.06,2.36,2.36,0,0,0,.86,1,1.6,1.6,0,0,0,2.11-.64l.64-.94a5,5,0,0,0,.71,1.11,1.61,1.61,0,0,0,1.84.59l.33-.11a7.7,7.7,0,0,0,1.49-.62.9.9,0,0,1,.79-.17,3.7,3.7,0,0,0,2.35,0c.14,0,.51-.24.54-.57l0-.34a9.09,9.09,0,0,0,.06-1.81,4.46,4.46,0,0,1,0-.51v-.19c0-.32,0-.63,0-1s0-.36,0-.54a2.81,2.81,0,0,1,0-.82,7,7,0,0,1,.57-1.52.68.68,0,0,1,.34-.31,12.25,12.25,0,0,1,4.06-.59,5.75,5.75,0,0,1,2.21.48,13.58,13.58,0,0,1,2.09,1,.66.66,0,0,1,.23.43,3.09,3.09,0,0,1-.46,2.07.5.5,0,0,1-.24.2,1.32,1.32,0,0,1-1.37-.41,2,2,0,0,0-1.33-.65,12.78,12.78,0,0,0-2.61.25,2.67,2.67,0,0,0-2.11,1.71,3.11,3.11,0,0,0,1.17,3.64,18.18,18.18,0,0,0,4,1.93l.33.13c.66.25,1.33.47,2,.69l.61.2.55.19a8.75,8.75,0,0,0,1.51.45,6.8,6.8,0,0,0,1.18.1,6.37,6.37,0,0,0,2-.31,16.55,16.55,0,0,0,2-.83,8.89,8.89,0,0,0,.79-.45,6.51,6.51,0,0,1,.84-.47,7,7,0,0,0,2.16-1.69,1.29,1.29,0,0,0,.31-1,1.41,1.41,0,0,1,0-.29,5.73,5.73,0,0,0,0-1.38c0-.18,0-.37-.05-.55a10.13,10.13,0,0,0-.19-1.36,2.7,2.7,0,0,1,0-.28,2.31,2.31,0,0,0-.33-1,3.89,3.89,0,0,1-.51-1.37,5.32,5.32,0,0,0-.34-1.12l0-.11a.93.93,0,0,0-.36-.51l-.27-.17a19.8,19.8,0,0,0-2-1.1A2.26,2.26,0,0,1,141,99.47a.86.86,0,0,1,0-.16v-.23l0-.8c0-.44-.05-.87-.07-1.3a5,5,0,0,1,0-.55,5.85,5.85,0,0,0-.07-1.18.25.25,0,0,1,.1-.32,6.18,6.18,0,0,1,.75-.52,3.56,3.56,0,0,0,1.5-1.48,6.34,6.34,0,0,0,1.51-1.69q.26-.39.54-.75a4.48,4.48,0,0,0,.49-.84c.07-.14.13-.27.21-.4s.3-.52.44-.77c.31-.53.62-1,.89-1.59a9.36,9.36,0,0,0,.48-1.15l.2-.51a7.14,7.14,0,0,1,.5-.94,5.14,5.14,0,0,0,.75-1.72,9.15,9.15,0,0,1,.32-1.19c.08-.25.17-.5.23-.75a1.41,1.41,0,0,0,0-.4.83.83,0,0,1,0-.24,6.32,6.32,0,0,0,.24-2.14V76.44a2.11,2.11,0,0,1,0-.25A1.81,1.81,0,0,0,150.06,75.46Zm-1.57,2.06a9.54,9.54,0,0,1-.2,2.4c-.08.29-.13.59-.19.9a6.56,6.56,0,0,1-.28,1.2c-.21.54-.48,1.08-.74,1.61-.17.33-.33.65-.48,1s-.37.83-.54,1.25-.29.69-.44,1l-.15.34a7.38,7.38,0,0,1-.58,1.16c-.31.48-.66.94-1,1.4s-.49.65-.72,1a9.8,9.8,0,0,1-2.79,2.81,2,2,0,0,0-1,1.93,32.68,32.68,0,0,1,0,3.57,2.1,2.1,0,0,0,.47,1.6l.12.12a2.58,2.58,0,0,0,1.15.87,3.85,3.85,0,0,1,1.13.56,7,7,0,0,0,.69.41,1.07,1.07,0,0,1,.5.45c.2.54.37,1.11.53,1.67.1.33.19.67.3,1a10.74,10.74,0,0,1,.55,3.52v.29a1.52,1.52,0,0,1-.09.69,6.16,6.16,0,0,1-1.47,1.28,16.25,16.25,0,0,1-1.64.9l-.45.22c-.37.19-.74.35-1.12.52l-.29.13a3.92,3.92,0,0,1-2.43.24,30.75,30.75,0,0,1-3.49-1.11l-.42-.15c-.5-.18-1-.4-1.5-.62-.32-.15-.64-.29-1-.42a8.79,8.79,0,0,1-2.14-1.24,2.48,2.48,0,0,1-.44-.48l-.08-.1-.11-.58a1.46,1.46,0,0,0-.05-.2s0-.12,0-.14a3.8,3.8,0,0,1,.18-.54l.07-.2a.79.79,0,0,0,0-.12,3.56,3.56,0,0,1,1.66-.87l.31,0c.64-.09,1.05-.13,1.42.27a3.52,3.52,0,0,0,3.61.61.86.86,0,0,0,.32-.35l.13-.23a3.45,3.45,0,0,0,.62-1.94c0-.06,0-.12,0-.18a1.16,1.16,0,0,0,0-.6.65.65,0,0,0-.14-.93,3.56,3.56,0,0,0-.85-.56l-.54-.23a2.91,2.91,0,0,1-.73-.35,5.11,5.11,0,0,0-2.31-.93,13.23,13.23,0,0,0-2.59-.12h-.17a7.18,7.18,0,0,0-1.05.12,5.9,5.9,0,0,1-.72.09c-2,.17-2.89,1-3.23,2.91a15.29,15.29,0,0,0-.13,2.43c0,.31,0,.61,0,.92q0,.72,0,1.44v.33a1.87,1.87,0,0,1-1-.07,3.36,3.36,0,0,0-1.81,0,5.73,5.73,0,0,0-1.33.61l-.49.26-.06-.08a5.7,5.7,0,0,1-.39-.61l0-.09a1.62,1.62,0,0,1-.2-.5,2.59,2.59,0,0,1,0-.54,5.35,5.35,0,0,0,0-.55,1.18,1.18,0,0,0-.26-.91,1.24,1.24,0,0,0-1-.22c-.76,0-.91.68-1,1a5.94,5.94,0,0,1-1.2,2.32.32.32,0,0,1-.13.11s0,0-.1-.12l-.08-.15a5.93,5.93,0,0,0-.36-.65c-.3-.47-.62-.71-1-.71a1.09,1.09,0,0,0-.9.58.91.91,0,0,0-1.13-.46.38.38,0,0,0-.31.36,3.7,3.7,0,0,1,0,.47c-.5,0-1,0-1.55,0h-.46c-.26,0-.28-.08-.28-.11a3.86,3.86,0,0,0-.48-1.24,2.58,2.58,0,0,1-.41-1.28.48.48,0,0,0-.09-.28l-.14-.32c-.1-.24-.19-.47-.31-.7a3,3,0,0,1-.15-.42,2,2,0,0,0-.69-1.12,2.35,2.35,0,0,0-.26-1.15,2.5,2.5,0,0,1-.2-.58,5.44,5.44,0,0,0-.17-.78c-.05-.23-.11-.46-.15-.69a1.53,1.53,0,0,1,0-.42,2.58,2.58,0,0,0,0-.38,2.53,2.53,0,0,0,0-.38,1.27,1.27,0,0,1,0-.33,2.46,2.46,0,0,1,.23-.42,2.61,2.61,0,0,0,.41-1,1.93,1.93,0,0,1,.26-.58,3.6,3.6,0,0,0,.26-.52,4.51,4.51,0,0,1,.22-.44,1.94,1.94,0,0,0,.2-1.92c0-.09-.06-.19-.09-.28a1.79,1.79,0,0,0-.39-.78l-1-.94-.72-.68a5.16,5.16,0,0,1-1.4-2,15.8,15.8,0,0,1-.65-2.63,28.62,28.62,0,0,1-.19-2.92l0-.54c0-.53,0-1.06,0-1.59,0-.35,0-.7,0-1.06,0-.21,0-.43,0-.64l0-.23a.83.83,0,0,0,0-.12,1.11,1.11,0,0,0,.11-.4,8.68,8.68,0,0,0,0-1l0-.42v-.37a6.26,6.26,0,0,0,0-.86,1.27,1.27,0,0,1,0-.38,1.35,1.35,0,0,0-.09-.87.61.61,0,0,0,.12-.6,1.47,1.47,0,0,1,0-.76,5,5,0,0,0,0-.55c0-.16,0-.33,0-.51v-.14a.64.64,0,0,0,0-.58.3.3,0,0,1,0-.12,5,5,0,0,1,.1-1.25c0-.15,0-.29.07-.44a.47.47,0,0,1,0-.09.9.9,0,0,0,.11-.4,3.58,3.58,0,0,1,.1-.85,5.67,5.67,0,0,0,.11-.84.84.84,0,0,0,.38-.35.8.8,0,0,0,.06-.58l.06-.08a1.13,1.13,0,0,0,.1-.13l.37-.43c.94-1.08,1-1.22,1.07-1.37s.07-.4.1-.61c.06-.44.12-.9.35-1a.39.39,0,0,0,.22-.42s0-.07,0-.11a.41.41,0,0,0,0-.19,9.74,9.74,0,0,0,0-1.21l0-.61V60.4l0,0a2.3,2.3,0,0,1,.23.37,1.73,1.73,0,0,0,1.11,1,9.15,9.15,0,0,0,1.62.24c1.78,0,3.39.06,5,0a5.81,5.81,0,0,0,1.19-.21,5.12,5.12,0,0,1,.9-.18c1-.1,2-.15,3.33-.17,2,0,4,0,6,0h.57a18.32,18.32,0,0,1,3.77.28,17.51,17.51,0,0,0,2.13.28l.23,0a7.79,7.79,0,0,1,2.79.71c.24.12.47.25.7.38a8.46,8.46,0,0,0,1.28.63c1.46.54,3.27,1.21,4.89-.43a3,3,0,0,1,.44-.34,4.12,4.12,0,0,0,.41-.32.86.86,0,0,0,.24-.39c.29-.22.6-.43.93-.65l.09.26a4.54,4.54,0,0,1,.37,2.29,4.7,4.7,0,0,0,1,3.56,9.22,9.22,0,0,1,1.21,2,33.57,33.57,0,0,1,1.25,3.5,11.64,11.64,0,0,1,.48,3.68Z"/><path d="M130.79,86.26a.38.38,0,0,0-.37.13.37.37,0,0,0-.06.38c.21.51,0,.79-.49,1.26l-.24.25a2.73,2.73,0,0,0-.32.37,1.35,1.35,0,0,1-1.3.61,5.38,5.38,0,0,1-3.3-1,.41.41,0,0,1-.1-.22c0-.27,0-.54,0-.82v-.46c0-.57,0-1.13,0-1.7a.8.8,0,0,0-.28-.49.4.4,0,0,0-.28-.12.36.36,0,0,0-.31.1.71.71,0,0,0-.26.26c-.15.26-.29.53-.43.79-.25.48-.51,1-.8,1.42A8.37,8.37,0,0,1,121,88.41a6.66,6.66,0,0,1-1.25.94l-.14.09a4.1,4.1,0,0,1-1.26.59,7.39,7.39,0,0,1-4.11-.68.83.83,0,0,0-.8,0,.81.81,0,0,0-.25.72,1.17,1.17,0,0,0,.1.4.37.37,0,0,0,.33.28h.15a8.58,8.58,0,0,0,3.58.85h.17a3.4,3.4,0,0,0,2.46-.82,3.42,3.42,0,0,1,.79-.56,5.91,5.91,0,0,0,2.59-2.84c0,.4,0,.79,0,1.18a1.1,1.1,0,0,0,.35.79,1.08,1.08,0,0,0,.53.27.61.61,0,0,0,.3.41l.13,0a6.4,6.4,0,0,0,1.39.51,13.71,13.71,0,0,0,2.23.25,1.48,1.48,0,0,0,1.36-.63,7.93,7.93,0,0,1,.81-1c.15-.15.29-.31.43-.47l.19-.21a4.07,4.07,0,0,0,.58-.72,1,1,0,0,0,0-.86A1.36,1.36,0,0,0,130.79,86.26Z"/><path d="M132,76.27l-.09-.13a2.9,2.9,0,0,0-.68-.77c-.25-.17-.61-.07-1.09.31a1,1,0,0,0-.28.39.91.91,0,0,1-.07.14,1.07,1.07,0,0,0,0,1.52,1.7,1.7,0,0,0,1.17.6h0a.92.92,0,0,0,.68-.27,2,2,0,0,0,.37-.81c0-.1,0-.19.08-.29s0-.22-.07-.31A.56.56,0,0,0,132,76.27Z"/><path d="M116.8,76.16a1.33,1.33,0,0,1-1.39,1.43h0a1.87,1.87,0,0,1-1.31-.5,1.47,1.47,0,0,1-.44-1,1.32,1.32,0,0,1,.35-.92,6.06,6.06,0,0,1,1.1-.74.76.76,0,0,1,.55-.07.47.47,0,0,1,.33.19.41.41,0,0,1,.06.35,1,1,0,0,1-.26.48,1.07,1.07,0,0,1,.27-.06.73.73,0,0,1,.56.15.75.75,0,0,1,.21.57S116.8,76.14,116.8,76.16Z"/><rect x="71.96" y="13.29" width="7.33" height="37.16"/><path d="M105.62,31.12a31.06,31.06,0,0,0-5-2.22c-1.72-.56-3.24-1.08-4.53-1.56a9.06,9.06,0,0,1-3-1.73A3.45,3.45,0,0,1,92,23a3.5,3.5,0,0,1,1.35-3,5.34,5.34,0,0,1,3.31-1h.17a5,5,0,0,1,3.76,1.38,4.65,4.65,0,0,1,1.39,3.2v.32h7.8v-.34a10.67,10.67,0,0,0-1.75-5.75A10.92,10.92,0,0,0,103.54,14a16.8,16.8,0,0,0-13.08,0A10.81,10.81,0,0,0,86,17.68a9.6,9.6,0,0,0-1.6,5.74,8.76,8.76,0,0,0,2.3,6.33,16.62,16.62,0,0,0,6.57,3.84l4.91,1.67a10,10,0,0,1,3.56,2A4.18,4.18,0,0,1,103,40.48a3.85,3.85,0,0,1-1.45,3.16,6.21,6.21,0,0,1-4,1.2,6.12,6.12,0,0,1-4.59-1.65,6,6,0,0,1-1.76-4.08v-.32H83.48v.33a11.5,11.5,0,0,0,1.88,6.47,11.84,11.84,0,0,0,5,4.08,17.61,17.61,0,0,0,7.22,1.41,15.51,15.51,0,0,0,7.19-1.53,10.79,10.79,0,0,0,4.47-4.06,10.65,10.65,0,0,0,1.5-5.48,9.82,9.82,0,0,0-1.41-5.48A10.5,10.5,0,0,0,105.62,31.12Z"/><path d="M132.79,13.5l-.08-.21h-8L111.31,50l-.16.44h7.69l3-8.45h13.78l2.92,8.45h7.79Zm.74,22.63h-9.66l4.8-13.86Z"/><rect x="13.31" y="70.99" width="7.33" height="37.16"/><path d="M47,88.82a31.06,31.06,0,0,0-5-2.22C40.24,86,38.72,85.52,37.43,85a9.16,9.16,0,0,1-3-1.73,4,4,0,0,1,.32-5.66,5.31,5.31,0,0,1,3.3-1h.18A5,5,0,0,1,42,78a4.61,4.61,0,0,1,1.39,3.2v.32h7.8v-.34a10.76,10.76,0,0,0-1.76-5.75,10.92,10.92,0,0,0-4.51-3.76,15.34,15.34,0,0,0-6.58-1.34,15.36,15.36,0,0,0-6.5,1.31,10.88,10.88,0,0,0-4.48,3.71,9.6,9.6,0,0,0-1.6,5.74A8.73,8.73,0,0,0,28,87.45a16.48,16.48,0,0,0,6.57,3.84L39.51,93a10,10,0,0,1,3.56,2,4.18,4.18,0,0,1,1.28,3.26,3.82,3.82,0,0,1-1.45,3.16,6.2,6.2,0,0,1-4,1.2,6.12,6.12,0,0,1-4.59-1.65,6,6,0,0,1-1.76-4.08v-.32H24.84v.33a11.5,11.5,0,0,0,1.88,6.47,11.84,11.84,0,0,0,5,4.08,17.63,17.63,0,0,0,7.23,1.41,15.56,15.56,0,0,0,7.19-1.53,10.82,10.82,0,0,0,4.46-4.06,10.65,10.65,0,0,0,1.5-5.48,9.82,9.82,0,0,0-1.41-5.48A10.5,10.5,0,0,0,47,88.82Z"/><path d="M74.14,71.2,74.06,71h-8L52.67,107.71l-.16.44h7.68l3-8.45H76.94l2.92,8.45h7.79Zm.75,22.63H65.22L70,80Z"/><path d="M60.87,32.77l0-.34a25.16,25.16,0,0,0-.29-2.76,1.76,1.76,0,0,0-.78-1.17,2.48,2.48,0,0,0-2.52.1,5.65,5.65,0,0,0-.51.34l-.24.17a2.3,2.3,0,0,0-1.18,1.8c0,.77,0,1.54,0,2.32,0,.2,0,.41,0,.61a6.44,6.44,0,0,0-.09,1.07,4.89,4.89,0,0,1,0,.54c0,.26-.1.87.16,1a.93.93,0,0,0,.75.13c.14-.05.24-.31.32-.42a1.22,1.22,0,0,0,.2-.59c.07-.48.06-1,.1-1.44.06-.68.06-1.36.12-2l0-.27a2.8,2.8,0,0,1,.2-1,2.87,2.87,0,0,1,1.22-1.17c.22-.11.36-.12.41-.09s.09.12.11.26c.11,1,.2,2,.25,3l0,.31a2.94,2.94,0,0,1-.07,1.21,4.91,4.91,0,0,1-2,2.45,1.18,1.18,0,0,0-.38.36l-.06-.11a2.24,2.24,0,0,0-.45-.71,13,13,0,0,0-4.47-2.45l-.18-.07a5.93,5.93,0,0,0-.92-.24,4.32,4.32,0,0,1-.86-.23,6.44,6.44,0,0,0-2.34-.4l-.38,0c-.62,0-1.25-.13-1.92-.22l-.93-.17.17-.21A15.32,15.32,0,0,0,46.53,29,27.92,27.92,0,0,0,47.85,24a20.93,20.93,0,0,0,.4-7,11.69,11.69,0,0,0-.74-2.46c-.17-.46-.34-.91-.48-1.37a23.64,23.64,0,0,0-1-2.62l-.46-1.09-.25-.62c-.23-.59-.46-1.16-.71-1.73a2.82,2.82,0,0,1-.22-1.37A16.08,16.08,0,0,0,44.19,3a5.78,5.78,0,0,0-.48-1.58,1.17,1.17,0,0,0-1-.62,1,1,0,0,0-1,.57A1.9,1.9,0,0,1,41.1,2a5.2,5.2,0,0,0-1.74,2.46l0,.11c-.15.33-.26.68-.38,1a8.38,8.38,0,0,1-.45,1.19l-.08.15c-.34.68-.63,1.27-1.4,1.41a4.54,4.54,0,0,0-1.32.39A5.65,5.65,0,0,1,32.47,9c-1.28-.13-2.58-.36-3.84-.58Q27.46,8.22,26.29,8c-1.15-.17-2.29-.29-3.39-.35h-.2a12.58,12.58,0,0,1-4-.63c-.33-.13-.46-.28-.48-.59a5.49,5.49,0,0,0-1.29-2.71l-.18-.24a17.12,17.12,0,0,0-1.47-1.69c-.32-.34-.63-.67-.93-1A2.1,2.1,0,0,0,11.72.25,4.12,4.12,0,0,0,9.86,2,7.89,7.89,0,0,0,9,4.29a21.67,21.67,0,0,0-.27,2.64l0,.35a2,2,0,0,0,.46,1.4l-.07.25a11.53,11.53,0,0,0-.29,1.12,5.52,5.52,0,0,0-.1.71,4.55,4.55,0,0,1-.11.74c-.19.75-.4,1.49-.61,2.23-.15.52-.29,1-.43,1.56s-.26,1.07-.37,1.64c-.06.34-.15.68-.23,1a7.32,7.32,0,0,0-.33,2.69l-2.35.77,0-.06c-.34-.63-.8-1.65-1.55-1.82A2.93,2.93,0,0,0,.25,20a1.38,1.38,0,0,0-.14,1.36,1.26,1.26,0,0,0,.45,1.5,8.79,8.79,0,0,0,.7.59l.06,0c0,.1-.05.2-.07.3a3.49,3.49,0,0,0-.14,1.15c0,.5,0,1,0,1.49a12.41,12.41,0,0,0,.16,2.41,10.67,10.67,0,0,0,.89,3,15.35,15.35,0,0,0,1,1.6c.24.35.48.69.69,1a20,20,0,0,0,4.44,5,8.1,8.1,0,0,0,1.58,1,3.25,3.25,0,0,0-1.36,1.14,6.68,6.68,0,0,0-.67,1.23,3.42,3.42,0,0,1-.36.67.67.67,0,0,0-.32.4c-.08.33-.15.67-.21,1-.13.64-.26,1.29-.45,1.92-.14.45-.24.91-.34,1.38,0,.19-.09.39-.13.58L6,49a1.15,1.15,0,0,0-.06.34c0,.72-.07,1.43-.09,2.15l0,.77c0,.8-.06,1.61-.06,2.42A1.61,1.61,0,0,0,6.74,56a1.57,1.57,0,0,0,1.58,0A12.66,12.66,0,0,0,10,54.64c.06,0,.16-.15.23-.2l.19.21a2.72,2.72,0,0,0,1,.81,1.91,1.91,0,0,0,.85.07,1.43,1.43,0,0,0,.3.57,1.32,1.32,0,0,0,1,.47H15a3.28,3.28,0,0,0,2.94-2,14.86,14.86,0,0,0,.57-1.38c.12-.35.25-.69.4-1s.11-.23.27-.19a3.82,3.82,0,0,0,1.39,0l.24,0c1.19-.15,2.58-.34,4-.57.88-.14,1.76-.31,2.66-.48l.71-.14c0,.35,0,.74,0,1.12A2.18,2.18,0,0,0,29,53.5a1.35,1.35,0,0,0,1,.26c.13,0,.23-.1.37-.07s.27.22.33.41a2.32,2.32,0,0,0,1.94,1.51,2.27,2.27,0,0,1,.94.31,2.67,2.67,0,0,0,3.19,0,1.41,1.41,0,0,0,.32-.55,1.31,1.31,0,0,1,.08-.21l.36-.62a9.63,9.63,0,0,0,.7-1.31A7.08,7.08,0,0,0,38.57,52a7.79,7.79,0,0,1,.22-.83,4.9,4.9,0,0,1,.4-.84l.17-.31c.08-.15.19-.31.29-.46a2.61,2.61,0,0,0,.55-1.25c0-.37,0-.36.54-.36h.95l2.52,0c.23,0,.48,0,.7,0H45a.35.35,0,0,1,0,.12c0,1,.13,2.1.21,2.9a1.85,1.85,0,0,0,1.48,1.37,1.71,1.71,0,0,0,1.74-.9.41.41,0,0,0,.05-.09,2.34,2.34,0,0,0,1,1,2.91,2.91,0,0,0,2.37.1l.28-.1c.51-.21.7-.27,1,.06a.73.73,0,0,0,.57.22l.2,0a.39.39,0,0,0,.43-.26l.51-1.83a2.25,2.25,0,0,0,1.4.87.94.94,0,0,0,.87-.25l.1-.11a5,5,0,0,0,1.18-1.75,26.25,26.25,0,0,0,1-4.31,8.91,8.91,0,0,0-2-6.8,2.36,2.36,0,0,0,1.12-.53,8.79,8.79,0,0,0,.66-.7,5.78,5.78,0,0,1,.52-.57,4.51,4.51,0,0,0,1.11-2.14A3.85,3.85,0,0,0,60.87,32.77ZM54.78,46.69l-.14-.06a.37.37,0,0,0-.29,0,.35.35,0,0,0-.22.19l-.08.14a2.77,2.77,0,0,0-.2.46,4.5,4.5,0,0,0-.08.51c0,.12,0,.25-.05.37s-.07.24-.11.37a3.81,3.81,0,0,0-.13.45c-.11.53-.22,1.06-.33,1.62v.05a.9.9,0,0,0-1.25,0,.33.33,0,0,0-.14,0h-.17a1.24,1.24,0,0,0-.59.07,1.26,1.26,0,0,1-1,.19c-.2-.08-.37-.34-.53-.79a.47.47,0,0,0-.06-.15s0-.09,0-.14a1.23,1.23,0,0,0-.56-.84,1.17,1.17,0,0,0-.93-.07.39.39,0,0,0-.27.3,2.06,2.06,0,0,1-.69,1.15l-.08.07c-.08.07-.19.19-.17.23a.74.74,0,0,1-.09-.38c0-.52,0-1,0-1.56,0-.33,0-.66,0-1a1.36,1.36,0,0,0-1.06-1.32,5,5,0,0,0-2-.15,19.92,19.92,0,0,1-3.05-.11,2.29,2.29,0,0,0-1.51.43c-.27.22-.28.55-.39.86a4.85,4.85,0,0,1-.53,1.1,2.84,2.84,0,0,0-.42.68c0,.16-.11.33-.16.5-.14.42-.28.82-.39,1.22-.07.23-.12.47-.17.71a7.59,7.59,0,0,1-.29,1,4.62,4.62,0,0,1-.5.86l-.34.5a.87.87,0,0,1-.62.51,2.06,2.06,0,0,1-.7,0,5.48,5.48,0,0,1-1.92-.7,2.46,2.46,0,0,1-.66-.44c-.2-.24-.27-.57-.46-.82a1.77,1.77,0,0,0-.92-.74,1.75,1.75,0,0,0-.79.05v-.21c0-.56,0-1.15,0-1.74a1.49,1.49,0,0,0-.51-1.16,1.29,1.29,0,0,0-1.08-.18,9.5,9.5,0,0,0-1.61.47,5.14,5.14,0,0,1-1.92.4,13.71,13.71,0,0,0-2,.26l-.95.16-.55.07c-.88.13-1.8.26-2.7.35a1,1,0,0,0-.87.64c-.06.14-.12.29-.17.44a5.83,5.83,0,0,1-.32.75,4,4,0,0,0-.31.83,1.83,1.83,0,0,1-.39.88l-.26.27c-.5.54-.81.84-1.42.66a.66.66,0,0,0-.23,0l-.23,0-.12,0H13.7c.08-.92.08-1.53-.28-1.94a1.34,1.34,0,0,0-1-.41.39.39,0,0,0-.37.26l-.36,1.05c-.29,0-.43-.07-.56-.4a1.79,1.79,0,0,0-.64-.78,1,1,0,0,0-1.05,0,4.05,4.05,0,0,0-.54.56,3.16,3.16,0,0,1-.34.38,5.9,5.9,0,0,1-.62.5l-.25.19-.34.25h0v-.13c0-.25,0-.5,0-.74s0-.46,0-.68,0-.52,0-.78a17.39,17.39,0,0,1,.13-2.16,17.94,17.94,0,0,1,.39-1.88c.09-.35.17-.7.25-1a6,6,0,0,0,.09-.61,4.1,4.1,0,0,1,.17-.82,8.47,8.47,0,0,1,.84-1.84,3.84,3.84,0,0,0,.27-.49,1.72,1.72,0,0,1,.69-.86,13.8,13.8,0,0,1,2.39-1.35,3,3,0,0,1,.93.07c.52.06,1,.08,1.55.16,1.38.2,2.76.43,4.14.66l1.91.31.72.13a16.75,16.75,0,0,0,1.75.25l.3,0a14.23,14.23,0,0,0,4.5-.2c.67-.17,1.33-.39,2-.6l.73-.24a.66.66,0,0,0,.29-.21l.41-.34c.33-.28.67-.56,1-.82a4.32,4.32,0,0,1,.58-.36l.34-.19.45-.3.41-.33.09-.08a.94.94,0,0,0,.28-.22L35,38.8a3.3,3.3,0,0,0,.58-.41,2.31,2.31,0,0,1,.46-.33,8.8,8.8,0,0,0,1.47-1c.22-.17.45-.35.68-.51a1.67,1.67,0,0,1,.51-.21,11,11,0,0,0,3.57-1.87A1.71,1.71,0,0,1,43.75,34c1,.2,1.92.31,2.86.43l.25,0a6.27,6.27,0,0,0,.75,0,3.57,3.57,0,0,1,1,.09l.17,0a42.83,42.83,0,0,1,4.54,1.46l.13.06c1.05.43,2.05.83,2.31,2a.85.85,0,0,0,.25.42,5.71,5.71,0,0,1,1.41,2.18A7.37,7.37,0,0,1,58,44c-.06.57-.17,1.13-.28,1.76l-.06.36a4.62,4.62,0,0,1-.24,1c-.09.23-.16.46-.23.69a2.89,2.89,0,0,1-.59,1.25l-.13.14a3.55,3.55,0,0,1-.52.51,4.55,4.55,0,0,1-.32-1.63,2.06,2.06,0,0,0-.28-1A.9.9,0,0,0,54.78,46.69ZM3.58,31a4.18,4.18,0,0,1-.34-1.09c-.08-.39-.18-.78-.26-1.17a10,10,0,0,1-.25-2.88,3.62,3.62,0,0,0,0-.87s-.12-.93.67-1.14a3.5,3.5,0,0,0,1.27-.76,5.4,5.4,0,0,1,2.11-.9L7.36,22a1.07,1.07,0,0,0,.83-1.46.61.61,0,0,1,0-.11l0-.14L8.31,20c0-.14,0-.28.08-.42L8.48,19a4.12,4.12,0,0,1,.43-1.58A1.08,1.08,0,0,0,9,16.82v-.16l0-.24c0-.41.06-.81.1-1.21a2.34,2.34,0,0,1,.08-.29l.11-.37c.14-.47.28-.94.43-1.41l.09-.32a1.57,1.57,0,0,1,.18-.51c.45-.52.53-1.91.59-3.42V8.47a2.32,2.32,0,0,0-.15-1,.77.77,0,0,1-.06-.57,1,1,0,0,0,0-.52,1.49,1.49,0,0,1,0-.17c0-.22.07-.45.12-.67s.1-.56.13-.84a.57.57,0,0,0,0-.32.61.61,0,0,0,.05-.12c.11-.24.22-.47.32-.7A8.6,8.6,0,0,1,11.8,2a2,2,0,0,1,.84-.46l.3-.11.05,0,.53.59C14.35,3,15.21,4,16,5a2.81,2.81,0,0,1,.41.87l.12.32a3.19,3.19,0,0,1,.13.44,2.33,2.33,0,0,0,.41,1,3.06,3.06,0,0,0,1.36.79,17.08,17.08,0,0,0,5.07.73,24.33,24.33,0,0,1,3.13.34c.74.12,1.47.26,2.21.39,1.18.22,2.4.44,3.62.58A9.73,9.73,0,0,0,36,10.23l.1,0a17.13,17.13,0,0,0,2.49-.79,2,2,0,0,0,.83-.84l.23-.31A1.68,1.68,0,0,0,40,7.16a1.14,1.14,0,0,1,.22-.42,2.51,2.51,0,0,0,.29-.51,5.35,5.35,0,0,0,.25-.93c0-.1.05-.21.07-.31L41,4.9a1.28,1.28,0,0,0,.49-.82A2,2,0,0,1,42,3.35a3.5,3.5,0,0,0,.27-.28,2.72,2.72,0,0,1,.24-.24c.06.4.11.77.13,1.14a8.81,8.81,0,0,1,0,.89,6.15,6.15,0,0,0,.05,1.48A7.54,7.54,0,0,0,43.25,8c.1.22.2.44.29.67l.69,1.74.23.62c.28.72.57,1.44.83,2.17l.33.85a19.36,19.36,0,0,1,.79,2.33,10,10,0,0,1,.14,2.5v.53a23.16,23.16,0,0,1-.21,3.23,47.37,47.37,0,0,1-1.16,4.76,5.22,5.22,0,0,1-.41,1,6.85,6.85,0,0,0-.43,1,4.81,4.81,0,0,1-1,1.57,12.13,12.13,0,0,1-2.15,2.38,16.84,16.84,0,0,1-2.93,1.65l-.14.06a24.08,24.08,0,0,0-3,1.79c-.67.44-1.32.92-2,1.39s-1.26.92-1.9,1.35A16.68,16.68,0,0,1,28.66,41a5.8,5.8,0,0,1-3,.48c-.55-.06-1.1-.08-1.66-.11s-1.13,0-1.69-.11c-.75-.09-1.51-.22-2.26-.35l-1.78-.28-1.06-.15c-1.32-.19-2.68-.38-4-.45a7.05,7.05,0,0,1-4.71-2.26,16.23,16.23,0,0,1-3-3.78c-.27-.48-.57-.93-.87-1.37A12.46,12.46,0,0,1,3.58,31Z"/><path d="M8,29.81a1.91,1.91,0,0,0,.91,1.66,2.47,2.47,0,0,0,1.94.3,2,2,0,0,0,1.35-.89.47.47,0,0,1,.06-.09c.12.22.24.42.36.62a.86.86,0,0,0,.37.36l.29.13a3.3,3.3,0,0,0,.94.34,4.75,4.75,0,0,0,.81.07A2.68,2.68,0,0,0,17.45,31c.4-.64.75-1.3,1.13-2a5.2,5.2,0,0,0,.27-.69L19,28a.37.37,0,0,0-.07-.38.37.37,0,0,0-.37-.12,2.51,2.51,0,0,0-2,2.08.54.54,0,0,1-.12.18l-.3.41-.33.45a.56.56,0,0,0-.09.17,1.28,1.28,0,0,1-1,.19,1.34,1.34,0,0,1-.84-.71,12.92,12.92,0,0,1-.55-1.17L13,28.44a.43.43,0,0,0-.23-.21.42.42,0,0,0-.31,0,2.38,2.38,0,0,1-.31.17,2,2,0,0,0-.71.51,5.4,5.4,0,0,0-.59,1c-.07.14-.14.29-.21.41a1.15,1.15,0,0,1-.74.13,5.52,5.52,0,0,1-.32-.78l0-.11a3.7,3.7,0,0,1,0-2.54.37.37,0,0,0-.08-.36.35.35,0,0,0-.35-.12l-.35,0a1,1,0,0,0-.8.31,2.1,2.1,0,0,0-.34,1.31,3.62,3.62,0,0,0,.17.82A3.07,3.07,0,0,1,8,29.81Z"/><path d="M15.91,17.41a.76.76,0,0,0,.29.45l.13.13a.37.37,0,0,0,.37.11l0,.37a.41.41,0,0,0,.13.27.38.38,0,0,0,.25.09h0a1.49,1.49,0,0,0,1.27-1.36c.06-.82-.22-.92-.33-1s-.08,0-.14-.22A1.58,1.58,0,0,0,17.8,16a1.27,1.27,0,0,0-1-.61,1,1,0,0,0-.73.33.85.85,0,0,0-.22.66v.31A6,6,0,0,0,15.91,17.41Z"/><path d="M31,19.83a.41.41,0,0,0,.19.05.46.46,0,0,0,.33-.15.59.59,0,0,0,.22-.34c0-.12.05-.23.08-.35A3.86,3.86,0,0,0,32,17.86a1.61,1.61,0,0,0-.71-1,.91.91,0,0,0-.72-.07l-.23,0A.37.37,0,0,0,30,17,2.72,2.72,0,0,0,31,19.83Z"/></g></g></svg>